<svg width="1920" height="1080" viewBox="0 0 1920 1080" fill="none" xmlns="http://www.w3.org/2000/svg">
<path d="M1159.41 206.314C1260.68 -227.608 1636.48 -242.965 1781.48 -308.996L2401.78 469.879L383.987 1610.54L-260.161 880.457C-80.9865 999.733 277.676 1520.23 757.599 1201.68C1074.48 991.361 1031.62 753.905 1159.41 206.314Z" fill="url(#paint0_linear_4_4)"/>
<path d="M1563.34 557.599C1916.62 330.879 2412.74 309.641 2599.7 318.639L2689 1133L-40.1639 1141L-283 486.111C-167.326 617.922 -97.572 1051.05 578.676 1020.76C1025.18 1000.77 1117.5 843.71 1563.34 557.599Z" fill="url(#paint1_linear_4_4)"/>
<defs>
<linearGradient id="paint0_linear_4_4" x1="1491.15" y1="296.16" x2="561.56" y2="2051.48" gradientUnits="userSpaceOnUse">
<stop offset="0.0246387" stop-color="#13276C"/>
<stop offset="0.996595" stop-color="#5095BB"/>
</linearGradient>
<linearGradient id="paint1_linear_4_4" x1="1680.06" y1="671.079" x2="812.137" y2="1944.1" gradientUnits="userSpaceOnUse">
<stop offset="0.0246387" stop-color="#1032AB"/>
<stop offset="0.996595" stop-color="#56C2FF"/>
</linearGradient>
</defs>
</svg>
